<mxfile host="65bd71144e">
    <diagram name="Page-1" id="e1Xt5vmfcbrQQM0qIg7f">
        <mxGraphModel dx="1231" dy="1067" grid="1" gridSize="10" guides="1" tooltips="1" connect="1" arrows="1" fold="1" page="1" pageScale="1" pageWidth="850" pageHeight="1100" math="0" shadow="0">
            <root>
                <mxCell id="0"/>
                <mxCell id="1" parent="0"/>
                <mxCell id="g2YyOXXaLxcl_CLIcowX-1" value="&lt;font face=&quot;Times New Roman&quot;&gt;User&lt;/font&gt;" style="shape=umlActor;verticalLabelPosition=bottom;verticalAlign=top;html=1;outlineConnect=0;" parent="1" vertex="1">
                    <mxGeometry x="120" y="340" width="30" height="60" as="geometry"/>
                </mxCell>
                <mxCell id="g2YyOXXaLxcl_CLIcowX-2" value="" style="whiteSpace=wrap;html=1;aspect=fixed;fillColor=none;" parent="1" vertex="1">
                    <mxGeometry x="190" y="220" width="480" height="480" as="geometry"/>
                </mxCell>
                <mxCell id="g2YyOXXaLxcl_CLIcowX-4" value="&lt;font face=&quot;Times New Roman&quot;&gt;Request Products&lt;/font&gt;" style="ellipse;whiteSpace=wrap;html=1;" parent="1" vertex="1">
                    <mxGeometry x="240" y="250" width="70" height="50" as="geometry"/>
                </mxCell>
                <mxCell id="g2YyOXXaLxcl_CLIcowX-5" value="&lt;font face=&quot;Times New Roman&quot;&gt;Fill Adoption Form&lt;/font&gt;" style="ellipse;whiteSpace=wrap;html=1;" parent="1" vertex="1">
                    <mxGeometry x="240" y="345" width="70" height="50" as="geometry"/>
                </mxCell>
                <mxCell id="g2YyOXXaLxcl_CLIcowX-6" value="Seek Advice" style="ellipse;whiteSpace=wrap;html=1;" parent="1" vertex="1">
                    <mxGeometry x="240" y="440" width="70" height="50" as="geometry"/>
                </mxCell>
                <mxCell id="g2YyOXXaLxcl_CLIcowX-7" value="" style="endArrow=none;html=1;rounded=0;exitX=1;exitY=0.3333333333333333;exitDx=0;exitDy=0;exitPerimeter=0;" parent="1" source="g2YyOXXaLxcl_CLIcowX-1" edge="1">
                    <mxGeometry width="50" height="50" relative="1" as="geometry">
                        <mxPoint x="400" y="430" as="sourcePoint"/>
                        <mxPoint x="240" y="270" as="targetPoint"/>
                    </mxGeometry>
                </mxCell>
                <mxCell id="g2YyOXXaLxcl_CLIcowX-8" value="" style="endArrow=none;html=1;rounded=0;entryX=0;entryY=0.5;entryDx=0;entryDy=0;exitX=1;exitY=0.3333333333333333;exitDx=0;exitDy=0;exitPerimeter=0;" parent="1" source="g2YyOXXaLxcl_CLIcowX-1" target="g2YyOXXaLxcl_CLIcowX-5" edge="1">
                    <mxGeometry width="50" height="50" relative="1" as="geometry">
                        <mxPoint x="150" y="340" as="sourcePoint"/>
                        <mxPoint x="250" y="280" as="targetPoint"/>
                    </mxGeometry>
                </mxCell>
                <mxCell id="g2YyOXXaLxcl_CLIcowX-9" value="" style="endArrow=none;html=1;rounded=0;entryX=0;entryY=0.5;entryDx=0;entryDy=0;exitX=1;exitY=0.3333333333333333;exitDx=0;exitDy=0;exitPerimeter=0;" parent="1" source="g2YyOXXaLxcl_CLIcowX-1" target="g2YyOXXaLxcl_CLIcowX-6" edge="1">
                    <mxGeometry width="50" height="50" relative="1" as="geometry">
                        <mxPoint x="150" y="340" as="sourcePoint"/>
                        <mxPoint x="260" y="290" as="targetPoint"/>
                    </mxGeometry>
                </mxCell>
                <mxCell id="g2YyOXXaLxcl_CLIcowX-10" value="&lt;font face=&quot;Times New Roman&quot;&gt;Leaving Reviews&lt;/font&gt;" style="ellipse;whiteSpace=wrap;html=1;" parent="1" vertex="1">
                    <mxGeometry x="355" y="250" width="70" height="50" as="geometry"/>
                </mxCell>
                <mxCell id="g2YyOXXaLxcl_CLIcowX-11" value="&lt;font face=&quot;Times New Roman&quot;&gt;Request Multiple Pets&lt;/font&gt;" style="ellipse;whiteSpace=wrap;html=1;" parent="1" vertex="1">
                    <mxGeometry x="360" y="320" width="70" height="50" as="geometry"/>
                </mxCell>
                <mxCell id="g2YyOXXaLxcl_CLIcowX-12" value="&lt;font style=&quot;font-size: 11px;&quot; face=&quot;Times New Roman&quot;&gt;&lt;font style=&quot;font-size: 11px;&quot;&gt;Survey &lt;/font&gt;&lt;span style=&quot;&quot;&gt;and profile testing&lt;/span&gt;&lt;/font&gt;" style="ellipse;whiteSpace=wrap;html=1;" parent="1" vertex="1">
                    <mxGeometry x="360" y="390" width="70" height="50" as="geometry"/>
                </mxCell>
                <mxCell id="g2YyOXXaLxcl_CLIcowX-13" value="&lt;font style=&quot;font-size: 11px;&quot; face=&quot;Times New Roman&quot;&gt;Messaging Professionals&lt;/font&gt;" style="ellipse;whiteSpace=wrap;html=1;" parent="1" vertex="1">
                    <mxGeometry x="360" y="460" width="70" height="50" as="geometry"/>
                </mxCell>
                <mxCell id="g2YyOXXaLxcl_CLIcowX-22" value="&lt;font face=&quot;Times New Roman&quot;&gt;Veterinarian&lt;/font&gt;" style="shape=umlActor;verticalLabelPosition=bottom;verticalAlign=top;html=1;outlineConnect=0;" parent="1" vertex="1">
                    <mxGeometry x="770" y="300" width="30" height="60" as="geometry"/>
                </mxCell>
                <mxCell id="g2YyOXXaLxcl_CLIcowX-24" value="&lt;font face=&quot;Times New Roman&quot;&gt;Shopkeeper&lt;/font&gt;" style="shape=umlActor;verticalLabelPosition=bottom;verticalAlign=top;html=1;outlineConnect=0;" parent="1" vertex="1">
                    <mxGeometry x="770" y="450" width="30" height="60" as="geometry"/>
                </mxCell>
                <mxCell id="g2YyOXXaLxcl_CLIcowX-25" value="&lt;font face=&quot;Times New Roman&quot;&gt;Adoption Center&lt;/font&gt;" style="shape=umlActor;verticalLabelPosition=bottom;verticalAlign=top;html=1;outlineConnect=0;" parent="1" vertex="1">
                    <mxGeometry x="770" y="590" width="30" height="60" as="geometry"/>
                </mxCell>
                <mxCell id="g2YyOXXaLxcl_CLIcowX-26" value="&lt;font face=&quot;Times New Roman&quot;&gt;Provide Advice&lt;/font&gt;" style="ellipse;whiteSpace=wrap;html=1;" parent="1" vertex="1">
                    <mxGeometry x="540" y="240" width="70" height="50" as="geometry"/>
                </mxCell>
                <mxCell id="g2YyOXXaLxcl_CLIcowX-27" value="&lt;font face=&quot;Times New Roman&quot;&gt;Suggest Prescription&lt;/font&gt;" style="ellipse;whiteSpace=wrap;html=1;" parent="1" vertex="1">
                    <mxGeometry x="540" y="320" width="70" height="50" as="geometry"/>
                </mxCell>
                <mxCell id="g2YyOXXaLxcl_CLIcowX-28" value="&lt;font face=&quot;Times New Roman&quot;&gt;Update Products&lt;/font&gt;" style="ellipse;whiteSpace=wrap;html=1;" parent="1" vertex="1">
                    <mxGeometry x="540" y="400" width="70" height="50" as="geometry"/>
                </mxCell>
                <mxCell id="g2YyOXXaLxcl_CLIcowX-29" value="&lt;font face=&quot;Times New Roman&quot;&gt;Manage Profile&lt;/font&gt;" style="ellipse;whiteSpace=wrap;html=1;" parent="1" vertex="1">
                    <mxGeometry x="540" y="480" width="70" height="50" as="geometry"/>
                </mxCell>
                <mxCell id="g2YyOXXaLxcl_CLIcowX-30" value="&lt;font face=&quot;Times New Roman&quot;&gt;Customer Service&lt;/font&gt;" style="ellipse;whiteSpace=wrap;html=1;" parent="1" vertex="1">
                    <mxGeometry x="540" y="560" width="70" height="50" as="geometry"/>
                </mxCell>
                <mxCell id="g2YyOXXaLxcl_CLIcowX-31" value="&lt;font face=&quot;Times New Roman&quot;&gt;Update Available Pets&lt;/font&gt;" style="ellipse;whiteSpace=wrap;html=1;" parent="1" vertex="1">
                    <mxGeometry x="540" y="640" width="70" height="50" as="geometry"/>
                </mxCell>
                <mxCell id="g2YyOXXaLxcl_CLIcowX-32" value="" style="endArrow=none;html=1;rounded=0;exitX=0;exitY=0.3333333333333333;exitDx=0;exitDy=0;exitPerimeter=0;entryX=1;entryY=0.5;entryDx=0;entryDy=0;" parent="1" source="g2YyOXXaLxcl_CLIcowX-22" target="g2YyOXXaLxcl_CLIcowX-26" edge="1">
                    <mxGeometry width="50" height="50" relative="1" as="geometry">
                        <mxPoint x="160" y="370" as="sourcePoint"/>
                        <mxPoint x="250" y="280" as="targetPoint"/>
                    </mxGeometry>
                </mxCell>
                <mxCell id="g2YyOXXaLxcl_CLIcowX-34" value="" style="endArrow=none;html=1;rounded=0;exitX=0;exitY=0.3333333333333333;exitDx=0;exitDy=0;exitPerimeter=0;entryX=1;entryY=0.5;entryDx=0;entryDy=0;" parent="1" source="g2YyOXXaLxcl_CLIcowX-22" target="g2YyOXXaLxcl_CLIcowX-27" edge="1">
                    <mxGeometry width="50" height="50" relative="1" as="geometry">
                        <mxPoint x="780" y="330" as="sourcePoint"/>
                        <mxPoint x="620" y="275" as="targetPoint"/>
                    </mxGeometry>
                </mxCell>
                <mxCell id="g2YyOXXaLxcl_CLIcowX-35" value="" style="endArrow=none;html=1;rounded=0;exitX=0;exitY=0.3333333333333333;exitDx=0;exitDy=0;exitPerimeter=0;entryX=1;entryY=0.5;entryDx=0;entryDy=0;" parent="1" source="g2YyOXXaLxcl_CLIcowX-24" target="g2YyOXXaLxcl_CLIcowX-28" edge="1">
                    <mxGeometry width="50" height="50" relative="1" as="geometry">
                        <mxPoint x="790" y="340" as="sourcePoint"/>
                        <mxPoint x="630" y="285" as="targetPoint"/>
                    </mxGeometry>
                </mxCell>
                <mxCell id="g2YyOXXaLxcl_CLIcowX-36" value="" style="endArrow=none;html=1;rounded=0;exitX=0;exitY=0.3333333333333333;exitDx=0;exitDy=0;exitPerimeter=0;entryX=1;entryY=0.5;entryDx=0;entryDy=0;" parent="1" source="g2YyOXXaLxcl_CLIcowX-24" target="g2YyOXXaLxcl_CLIcowX-29" edge="1">
                    <mxGeometry width="50" height="50" relative="1" as="geometry">
                        <mxPoint x="800" y="350" as="sourcePoint"/>
                        <mxPoint x="640" y="295" as="targetPoint"/>
                    </mxGeometry>
                </mxCell>
                <mxCell id="g2YyOXXaLxcl_CLIcowX-37" value="" style="endArrow=none;html=1;rounded=0;entryX=1;entryY=0.5;entryDx=0;entryDy=0;" parent="1" target="g2YyOXXaLxcl_CLIcowX-30" edge="1">
                    <mxGeometry width="50" height="50" relative="1" as="geometry">
                        <mxPoint x="770" y="470" as="sourcePoint"/>
                        <mxPoint x="650" y="305" as="targetPoint"/>
                    </mxGeometry>
                </mxCell>
                <mxCell id="g2YyOXXaLxcl_CLIcowX-38" value="" style="endArrow=none;html=1;rounded=0;exitX=0;exitY=0.3333333333333333;exitDx=0;exitDy=0;exitPerimeter=0;entryX=1;entryY=0.6;entryDx=0;entryDy=0;entryPerimeter=0;" parent="1" source="g2YyOXXaLxcl_CLIcowX-25" target="g2YyOXXaLxcl_CLIcowX-29" edge="1">
                    <mxGeometry width="50" height="50" relative="1" as="geometry">
                        <mxPoint x="820" y="370" as="sourcePoint"/>
                        <mxPoint x="610" y="500" as="targetPoint"/>
                    </mxGeometry>
                </mxCell>
                <mxCell id="g2YyOXXaLxcl_CLIcowX-39" value="" style="endArrow=none;html=1;rounded=0;exitX=0;exitY=0.3333333333333333;exitDx=0;exitDy=0;exitPerimeter=0;entryX=1;entryY=0.5;entryDx=0;entryDy=0;" parent="1" source="g2YyOXXaLxcl_CLIcowX-25" target="g2YyOXXaLxcl_CLIcowX-30" edge="1">
                    <mxGeometry width="50" height="50" relative="1" as="geometry">
                        <mxPoint x="830" y="380" as="sourcePoint"/>
                        <mxPoint x="670" y="325" as="targetPoint"/>
                    </mxGeometry>
                </mxCell>
                <mxCell id="g2YyOXXaLxcl_CLIcowX-40" value="" style="endArrow=none;html=1;rounded=0;entryX=1;entryY=0.5;entryDx=0;entryDy=0;" parent="1" target="g2YyOXXaLxcl_CLIcowX-31" edge="1">
                    <mxGeometry width="50" height="50" relative="1" as="geometry">
                        <mxPoint x="770" y="610" as="sourcePoint"/>
                        <mxPoint x="680" y="335" as="targetPoint"/>
                    </mxGeometry>
                </mxCell>
                <mxCell id="g2YyOXXaLxcl_CLIcowX-41" value="&lt;font face=&quot;Times New Roman&quot;&gt;Generate Reports&lt;/font&gt;" style="ellipse;whiteSpace=wrap;html=1;" parent="1" vertex="1">
                    <mxGeometry x="370" y="560" width="70" height="50" as="geometry"/>
                </mxCell>
                <mxCell id="2" value="&amp;lt;&amp;lt;extends&amp;gt;&amp;gt;" style="endArrow=classic;html=1;dashed=1;dashPattern=8 8;fontFamily=Times New Roman;entryX=1;entryY=0.5;entryDx=0;entryDy=0;exitX=0;exitY=0.5;exitDx=0;exitDy=0;fontSize=9;" edge="1" parent="1" source="g2YyOXXaLxcl_CLIcowX-10" target="g2YyOXXaLxcl_CLIcowX-4">
                    <mxGeometry x="0.1111" y="15" width="50" height="50" relative="1" as="geometry">
                        <mxPoint x="360" y="207.32" as="sourcePoint"/>
                        <mxPoint x="394.64466094067257" y="159.9976695296637" as="targetPoint"/>
                        <mxPoint as="offset"/>
                    </mxGeometry>
                </mxCell>
                <mxCell id="3" value="&amp;lt;&amp;lt;includes&amp;gt;&amp;gt;" style="endArrow=classic;html=1;dashed=1;dashPattern=8 8;fontFamily=Times New Roman;entryX=-0.005;entryY=0.317;entryDx=0;entryDy=0;exitX=1;exitY=0.5;exitDx=0;exitDy=0;fontSize=9;entryPerimeter=0;" edge="1" parent="1" source="g2YyOXXaLxcl_CLIcowX-5" target="g2YyOXXaLxcl_CLIcowX-12">
                    <mxGeometry x="-0.0881" y="-5" width="50" height="50" relative="1" as="geometry">
                        <mxPoint x="365" y="285" as="sourcePoint"/>
                        <mxPoint x="320" y="285" as="targetPoint"/>
                        <mxPoint y="-1" as="offset"/>
                    </mxGeometry>
                </mxCell>
                <mxCell id="4" value="&amp;lt;&amp;lt;extends&amp;gt;&amp;gt;" style="endArrow=classic;html=1;dashed=1;dashPattern=8 8;fontFamily=Times New Roman;entryX=1;entryY=0.5;entryDx=0;entryDy=0;exitX=0;exitY=0.5;exitDx=0;exitDy=0;fontSize=9;" edge="1" parent="1" source="g2YyOXXaLxcl_CLIcowX-11" target="g2YyOXXaLxcl_CLIcowX-5">
                    <mxGeometry x="0.04" y="-9" width="50" height="50" relative="1" as="geometry">
                        <mxPoint x="365" y="285" as="sourcePoint"/>
                        <mxPoint x="320" y="285" as="targetPoint"/>
                        <mxPoint as="offset"/>
                    </mxGeometry>
                </mxCell>
                <mxCell id="5" value="&amp;lt;&amp;lt;includes&amp;gt;&amp;gt;" style="endArrow=classic;html=1;dashed=1;dashPattern=8 8;fontFamily=Times New Roman;entryX=0;entryY=0.5;entryDx=0;entryDy=0;exitX=1;exitY=0.5;exitDx=0;exitDy=0;fontSize=9;" edge="1" parent="1" source="g2YyOXXaLxcl_CLIcowX-6" target="g2YyOXXaLxcl_CLIcowX-13">
                    <mxGeometry x="0.0345" y="11" width="50" height="50" relative="1" as="geometry">
                        <mxPoint x="319.9999999999983" y="380" as="sourcePoint"/>
                        <mxPoint x="369.65" y="415.85" as="targetPoint"/>
                        <mxPoint as="offset"/>
                    </mxGeometry>
                </mxCell>
                <mxCell id="6" value="&amp;lt;&amp;lt;includes&amp;gt;&amp;gt;" style="endArrow=classic;html=1;dashed=1;dashPattern=8 8;fontFamily=Times New Roman;entryX=1;entryY=0.5;entryDx=0;entryDy=0;exitX=0;exitY=0.5;exitDx=0;exitDy=0;fontSize=9;" edge="1" parent="1" source="g2YyOXXaLxcl_CLIcowX-28" target="g2YyOXXaLxcl_CLIcowX-41">
                    <mxGeometry x="-0.0881" y="-5" width="50" height="50" relative="1" as="geometry">
                        <mxPoint x="490.3499999999983" y="530" as="sourcePoint"/>
                        <mxPoint x="540" y="565.85" as="targetPoint"/>
                        <mxPoint y="-1" as="offset"/>
                    </mxGeometry>
                </mxCell>
                <mxCell id="7" value="&amp;lt;&amp;lt;includes&amp;gt;&amp;gt;" style="endArrow=classic;html=1;dashed=1;dashPattern=8 8;fontFamily=Times New Roman;entryX=1;entryY=0.5;entryDx=0;entryDy=0;exitX=0;exitY=0.5;exitDx=0;exitDy=0;fontSize=9;" edge="1" parent="1" source="g2YyOXXaLxcl_CLIcowX-31" target="g2YyOXXaLxcl_CLIcowX-41">
                    <mxGeometry x="-0.0881" y="-5" width="50" height="50" relative="1" as="geometry">
                        <mxPoint x="550" y="435" as="sourcePoint"/>
                        <mxPoint x="450.0000000000023" y="595" as="targetPoint"/>
                        <mxPoint y="-1" as="offset"/>
                    </mxGeometry>
                </mxCell>
            </root>
        </mxGraphModel>
    </diagram>
</mxfile>